<svg width="21" height="20" viewBox="0 0 21 20" fill="none" xmlns="http://www.w3.org/2000/svg">
<path d="M19.1667 10.0507C19.167 8.44873 18.711 6.88022 17.8526 5.53088C16.9942 4.18155 15.7693 3.10789 14.3231 2.43705C12.8768 1.7662 11.2697 1.52627 9.69212 1.74565C8.1145 1.96503 6.63242 2.63455 5.42137 3.67492C4.21032 4.71528 3.32101 6.08293 2.85875 7.61593C2.39649 9.14892 2.38064 10.783 2.81307 12.3248C3.24551 13.8666 4.10811 15.2514 5.29875 16.3154C6.48939 17.3793 7.9582 18.0778 9.53126 18.3281V12.4731H7.41563V10.0507H9.53126V8.20346C9.4857 7.77225 9.535 7.33624 9.67566 6.92633C9.81632 6.51641 10.0449 6.14264 10.3452 5.8315C10.6455 5.52035 11.0101 5.27945 11.4133 5.12587C11.8165 4.97229 12.2483 4.90979 12.6781 4.94279C13.3032 4.95105 13.9267 5.00568 14.5438 5.10625V7.17141H13.4938C13.3149 7.14788 13.1331 7.16511 12.9617 7.22182C12.7904 7.27853 12.6339 7.37327 12.5039 7.49903C12.3738 7.62479 12.2736 7.77835 12.2105 7.94835C12.1475 8.11835 12.1232 8.30043 12.1396 8.48112V10.0528H14.451L14.0813 12.4752H12.1354V18.3333C14.0961 18.0214 15.8816 17.0156 17.1707 15.4972C18.4597 13.9788 19.1675 12.0474 19.1667 10.0507Z" fill="#409CFF"/>
</svg>
