<svg width="18" height="18" viewBox="0 0 18 18" fill="none" xmlns="http://www.w3.org/2000/svg">
<path d="M17.3379 7.36792H16.6666V7.33334H9.16665V10.6667H13.8762C13.1891 12.6071 11.3429 14 9.16665 14C6.4054 14 4.16665 11.7613 4.16665 9.00001C4.16665 6.23876 6.4054 4.00001 9.16665 4.00001C10.4412 4.00001 11.6008 4.48084 12.4837 5.26625L14.8408 2.90917C13.3525 1.52209 11.3616 0.666672 9.16665 0.666672C4.56456 0.666672 0.833313 4.39792 0.833313 9.00001C0.833313 13.6021 4.56456 17.3333 9.16665 17.3333C13.7687 17.3333 17.5 13.6021 17.5 9.00001C17.5 8.44126 17.4425 7.89584 17.3379 7.36792Z" fill="#FFC107"/>
<path d="M1.7941 5.12125L4.53201 7.12917C5.27285 5.29501 7.06701 4.00001 9.1666 4.00001C10.4412 4.00001 11.6008 4.48084 12.4837 5.26625L14.8408 2.90917C13.3524 1.52209 11.3616 0.666672 9.1666 0.666672C5.96576 0.666672 3.18993 2.47376 1.7941 5.12125Z" fill="#FF3D00"/>
<path d="M9.16667 17.3333C11.3192 17.3333 13.275 16.5096 14.7538 15.17L12.1746 12.9875C11.3379 13.6213 10.2979 14 9.16667 14C6.99917 14 5.15876 12.6179 4.46542 10.6892L1.74792 12.7829C3.12709 15.4817 5.92792 17.3333 9.16667 17.3333Z" fill="#4CAF50"/>
<path d="M17.3379 7.36793H16.6667V7.33334H9.16666V10.6667H13.8762C13.5462 11.5988 12.9467 12.4025 12.1733 12.9879C12.1737 12.9875 12.1742 12.9875 12.1746 12.9871L14.7537 15.1696C14.5712 15.3354 17.5 13.1667 17.5 9.00001C17.5 8.44126 17.4425 7.89584 17.3379 7.36793Z" fill="#1976D2"/>
</svg>
