<svg width="15" height="13" viewBox="0 0 15 13" fill="none" xmlns="http://www.w3.org/2000/svg">
<path d="M15 2.17875C14.4488 2.42292 13.8558 2.58583 13.2304 2.66292C13.8663 2.28542 14.3554 1.68333 14.585 0.972083C13.99 1.32083 13.3308 1.57708 12.6296 1.71208C12.0696 1.11833 11.2708 0.75 10.3858 0.75C8.68585 0.75 7.30793 2.11583 7.30793 3.8C7.30793 4.03833 7.33585 4.27042 7.38835 4.49583C4.83085 4.3675 2.56251 3.15167 1.04501 1.30667C0.778347 1.7575 0.628347 2.28542 0.628347 2.8425C0.628347 3.90125 1.17043 4.83333 1.9971 5.3825C1.49251 5.36708 1.01751 5.22667 0.60168 5.00167C0.60168 5.01083 0.60168 5.02458 0.60168 5.0375C0.60168 6.51708 1.66293 7.74917 3.0696 8.02958C2.81251 8.1 2.54085 8.13917 2.26085 8.13917C2.0621 8.13917 1.86835 8.11667 1.68085 8.08292C2.07251 9.29208 3.20876 10.1758 4.55501 10.2021C3.50168 11.0187 2.17501 11.5079 0.732514 11.5079C0.483347 11.5079 0.239597 11.4937 -0.00123596 11.4646C1.36168 12.3275 2.98001 12.8333 4.7171 12.8333C10.3775 12.8333 13.4742 8.185 13.4742 4.1525C13.4742 4.02042 13.47 3.88875 13.4638 3.75875C14.0679 3.33208 14.5888 2.79375 15 2.17875Z" fill="#03A9F4"/>
</svg>
